<svg fill="none" height="133" viewBox="0 0 133 133" width="133" xmlns="http://www.w3.org/2000/svg"><clipPath id="a"><path d="M12 25h108v83H12z"/></clipPath><g clip-path="url(#a)"><path d="M39.47 107.49L79.7 62.588l40.3 44.906z" fill="#fff"/><path d="M50.99 94.721c-5.559-5.767-9.319-13.074-10.81-21.004a41.636 41.636 0 0 1 2.43-23.574c3.076-7.444 8.244-13.8 14.858-18.272a39.898 39.898 0 0 1 22.323-6.867H12v82.486h27.47z" fill="#ee911a"/><path d="M59.922 84.66L39.526 62.485 12 93.205v14.289l27.47-.004.542-.604z" fill="#352157"/><path d="M39.522 62.486l40.172.106-19.862 22.166z" fill="#00ada9"/><path d="M79.701 62.592l28.752 32.03c7.396-7.633 11.542-17.915 11.547-28.628C120 43.364 101.769 25.02 79.701 25z" fill="#9315f6"/><path d="M51.858 93.66l8.064-9-20.393-22.163a42.962 42.962 0 0 0-.146 3.497c-.013 10.738 4.134 21.05 11.543 28.705z" fill="#007187"/><path d="M80.139 93.429h-13.84v14.065h13.84z" fill="#7ac98f"/><path d="M79.701 25c-10.106-.02-19.85 3.826-27.292 10.775-7.442 6.948-12.038 16.49-12.872 26.726l40.164.087z" fill="#5d399a"/></g></svg>